# xmcd
#
# Track frame offsets: 
#        150
#        15658
#        31689
#        59473
#        77463
#        89360
#        114092
#
# Disc length: 2063 seconds
#
# Revision: 0
# Processed by: cddbd v1.5.2PL0 Copyright (c) Steve Scherf et al.
# Submitted via: ExactAudioCopyFreeDBPlugin 1.0
#
DISCID=41080d07
DTITLE=Blue Steel - Blue Steel
DYEAR=2005
DGENRE=blues
TTITLE0=La Ville Brule
TTITLE1=Amour Meurtri
TTITLE2=Les Assassins Sont Philosophe
TTITLE3=Highroller
TTITLE4=Boogie Night's
TTITLE5=Lonesome Highway
TTITLE6=Midnight Madness
EXTD=
EXTT0=
EXTT1=
EXTT2=
EXTT3=
EXTT4=
EXTT5=
EXTT6=
PLAYORDER=
